# xmcd
#
# Track frame offsets: 
#        150
#        11682
#        20702
#        32819
#        44729
#        56255
#        72557
#        85080
#        97419
#        109061
#        118469
#        127559
#        139540
#        148137
#        161581
#        177054
#        191748
#        204429
#        216057
#
# Disc length: 3003 seconds
#
# Revision: 0
# Processed by: cddbd v1.5.2PL0 Copyright (c) Steve Scherf et al.
# Submitted via: ExactAudioCopy v1.3
#
DISCID=1a0bb913
DTITLE=Various Artist - Chicago Blues From C.J. Records Volume 2
DYEAR=2015
DGENRE=Blues
TTITLE0=Earl Hooker - Earl Hooker - Do the Chicken
TTITLE1=Earl Hooker - Earl Hooker - Yea Yea
TTITLE2=Earl Hooker - Earl Hooker - Wild Moments
TTITLE3=Homesick James - Homesick James - Set A Date
TTITLE4=Homesick James - Homesick James - Can't Afford To Do It
TTITLE5=Lee Jackson - Lee Jackson - Juanita
TTITLE6=Lee Jackson - Lee Jackson - Apollo 17
TTITLE7=Lee Jackson - Lee Jackson - Pleadin' For Love
TTITLE8=Lee Jackson - Lee Jackson - Choy Suey
TTITLE9=Harold Tidwell - Harold Tidwell - Sweet Susie
TTITLE10=Harold Tidwell  - Harold Tidwell - Senorita Juanita
TTITLE11=Bobby Colquitt and String Bean with Charles Band - Bobby Colqui
TTITLE11=tt and String Bean with Charles Band - Million Dollar Playgirl
TTITLE12=Betty Everett and Earl Hooker All Stars - Betty Everett and Earl 
TTITLE12=Hooker All Stars - Happy I Long To Be
TTITLE13=Morris Jones and Betty Everett - Morris Jones and Betty Everett -
TTITLE13=This House
TTITLE14=William Carter - William Carter - Goin' Out West
TTITLE15=William Carter - William Carter - Don't Make Me Mad
TTITLE16=Bobby Davis - Bobby Davis - Sweet Song
TTITLE17=Morris Jones - Morris Jones - Her Spare
TTITLE18=Willie Milan - Willie Milan - Tell Daddy Baby
EXTD=
EXTT0=
EXTT1=
EXTT2=
EXTT3=
EXTT4=
EXTT5=
EXTT6=
EXTT7=
EXTT8=
EXTT9=
EXTT10=
EXTT11=
EXTT12=
EXTT13=
EXTT14=
EXTT15=
EXTT16=
EXTT17=
EXTT18=
PLAYORDER=
